<svg xmlns="http://www.w3.org/2000/svg" width="24" height="24" viewBox="0 0 24 24" fill="none">
  <defs>
    <linearGradient id="bookGradient1" x1="0%" y1="0%" x2="100%" y2="100%">
      <stop offset="0%" style="stop-color:#ff6b6b;stop-opacity:1" />
      <stop offset="50%" style="stop-color:#4ecdc4;stop-opacity:1" />
      <stop offset="100%" style="stop-color:#45b7d1;stop-opacity:1" />
    </linearGradient>
    <linearGradient id="bookGradient2" x1="0%" y1="0%" x2="100%" y2="100%">
      <stop offset="0%" style="stop-color:#96ceb4;stop-opacity:1" />
      <stop offset="50%" style="stop-color:#feca57;stop-opacity:1" />
      <stop offset="100%" style="stop-color:#ff9ff3;stop-opacity:1" />
    </linearGradient>
    <linearGradient id="spineGradient" x1="0%" y1="0%" x2="100%" y2="100%">
      <stop offset="0%" style="stop-color:#5f27cd;stop-opacity:1" />
      <stop offset="100%" style="stop-color:#00d2d3;stop-opacity:1" />
    </linearGradient>
  </defs>
  
  <!-- Book spine -->
  <rect x="10" y="3" width="4" height="18" fill="url(#spineGradient)" rx="1"/>
  
  <!-- Left book cover -->
  <path d="M2 3h6a4 4 0 0 1 4 4v14a3 3 0 0 0-3-3H2z" fill="url(#bookGradient1)" stroke="#2c3e50" stroke-width="0.5"/>
  
  <!-- Right book cover -->
  <path d="M22 3h-6a4 4 0 0 0-4 4v14a3 3 0 0 1 3-3h7z" fill="url(#bookGradient2)" stroke="#2c3e50" stroke-width="0.5"/>
  
  <!-- Decorative elements -->
  <circle cx="6" cy="8" r="1" fill="#e74c3c"/>
  <circle cx="18" cy="12" r="1" fill="#3498db"/>
  <circle cx="7" cy="15" r="0.8" fill="#f39c12"/>
  <circle cx="17" cy="18" r="0.8" fill="#9b59b6"/>
</svg> 